<svg width="2726" height="1102" viewBox="0 0 2726 1102" fill="none" xmlns="http://www.w3.org/2000/svg">
<path fill-rule="evenodd" clip-rule="evenodd" d="M818.17 692.091C813.604 624.526 794.206 558.741 761.316 499.277C718.365 420.158 660.494 350.224 603.361 281.182L601.638 279.101L576.903 249.114L575.456 247.39C550.873 217.778 432.218 73.8421 408.015 0C389.368 56.5248 315.542 153.981 271.018 209.906H381.225C388.289 209.906 395.065 212.671 400.061 217.591C405.056 222.512 407.863 229.186 407.863 236.145C407.863 243.104 405.056 249.777 400.061 254.698C395.065 259.619 388.289 262.383 381.225 262.383H250.24C243.34 262.38 236.525 263.885 230.287 266.789C224.049 269.693 218.542 273.923 214.164 279.176C208.769 285.783 205.381 293.758 204.389 302.18C203.397 310.602 204.842 319.129 208.557 326.777C212.273 334.426 218.107 340.884 225.388 345.407C232.668 349.931 241.099 352.335 249.707 352.343H343.094C350.158 352.343 356.934 355.107 361.93 360.028C366.925 364.949 369.732 371.622 369.732 378.581C369.732 385.54 366.925 392.214 361.93 397.135C356.934 402.055 350.158 404.82 343.094 404.82H137.597C130.524 404.84 123.56 406.548 117.304 409.799C111.047 413.05 105.684 417.747 101.674 423.486C97.4112 429.757 94.9883 437.065 94.6717 444.605C94.3552 452.145 96.1572 459.625 99.8793 466.221C103.601 472.817 109.099 478.274 115.768 481.99C122.436 485.706 130.016 487.538 137.673 487.283H533.444C539.5 487.283 545.307 489.652 549.589 493.87C553.871 498.088 556.277 503.808 556.277 509.773C556.277 515.737 553.871 521.458 549.589 525.676C545.307 529.893 539.5 532.263 533.444 532.263H282.282C272.189 532.263 262.51 536.212 255.373 543.241C248.236 550.271 244.227 559.805 244.227 569.746V595.984C244.227 600.907 243.243 605.781 241.33 610.328C239.418 614.876 236.615 619.008 233.081 622.489C229.547 625.97 225.352 628.731 220.735 630.614C216.118 632.498 211.17 633.468 206.172 633.468H37.7414C28.5483 633.215 19.5833 636.31 12.5621 642.161C-8.22263 659.48 -2.06343 691.889 22.5621 701.563C27.3825 703.456 32.5571 704.316 37.7414 704.086H253.132C259.188 704.086 264.995 706.456 269.277 710.673C273.559 714.891 275.965 720.611 275.965 726.576C275.965 732.541 278.37 738.261 282.652 742.479C286.934 746.697 292.742 749.066 298.798 749.066H817.333C818.984 730.118 819.264 711.079 818.17 692.091ZM250.849 922.605C206.172 922.605 202.519 855.135 250.849 855.135H398.501C409.081 855.135 417.605 831.305 417.605 820.884C417.605 810.464 426.129 794.571 436.632 794.571H810.559C790.695 887.155 735.135 971.642 641.139 1033.04C557.072 1087.63 456.023 1110.97 356.08 1098.89C256.137 1086.8 163.823 1040.07 95.6609 967.069H457.334C489.525 967.069 491.034 922.605 457.334 922.605H250.849ZM162.014 599.435C168.823 599.435 175.48 597.447 181.142 593.72C186.803 589.994 191.216 584.698 193.822 578.501C196.428 572.304 197.11 565.486 195.781 558.907C194.453 552.329 191.174 546.286 186.359 541.544C181.544 536.801 175.409 533.571 168.731 532.263C162.052 530.954 155.129 531.626 148.838 534.193C142.547 536.759 137.17 541.106 133.387 546.683C129.604 552.26 127.584 558.816 127.584 565.523C127.584 574.517 131.212 583.143 137.669 589.503C144.125 595.863 152.883 599.435 162.014 599.435ZM149.202 922.631C156.012 922.631 162.668 920.642 168.33 916.916C173.992 913.189 178.405 907.893 181.011 901.696C183.617 895.5 184.298 888.681 182.97 882.103C181.641 875.524 178.362 869.482 173.547 864.739C168.732 859.996 162.598 856.767 155.919 855.458C149.24 854.15 142.318 854.821 136.027 857.388C129.736 859.955 124.358 864.301 120.575 869.878C116.792 875.455 114.773 882.012 114.773 888.719C114.773 897.713 118.4 906.339 124.857 912.698C131.314 919.058 140.071 922.631 149.202 922.631ZM2591.76 974.098C2606.05 984.744 2627.13 990.067 2654.98 990.067C2679.04 990.067 2696.91 986.202 2708.58 978.473C2720.24 970.744 2726 958.713 2725.86 942.38C2725.86 925.9 2717.11 913.505 2699.61 905.192C2692.17 901.546 2680.28 898.046 2663.95 894.692C2646.45 891.046 2634.35 888.275 2627.64 886.38C2618.6 883.9 2612.03 880.911 2607.95 877.411C2604.01 873.911 2602.12 869.171 2602.26 863.192C2602.26 857.796 2603.87 853.276 2607.08 849.63C2610.43 845.838 2614.73 843.14 2619.98 841.536C2625.23 839.932 2629.97 838.838 2634.2 838.255C2638.58 837.671 2642.88 837.38 2647.11 837.38C2653.09 837.38 2658.63 837.89 2663.73 838.911C2668.98 839.932 2674.23 841.609 2679.48 843.942C2684.73 846.276 2689.03 849.921 2692.39 854.88C2695.74 859.692 2697.78 865.525 2698.51 872.38H2720.39C2719.95 855.609 2713.61 842.192 2701.36 832.13C2689.11 821.921 2671.97 816.817 2649.95 816.817C2641.64 816.817 2633.54 817.692 2625.67 819.442C2617.79 821.192 2610.36 823.89 2603.36 827.536C2596.36 831.182 2590.74 836.359 2586.51 843.067C2582.28 849.63 2580.17 857.286 2580.17 866.036C2580.17 876.973 2583.74 885.505 2590.89 891.63C2598.03 897.609 2608.46 902.567 2622.17 906.505C2630.04 908.692 2639.89 911.025 2651.7 913.505C2663.66 915.984 2670.29 917.369 2671.61 917.661C2676.13 918.682 2679.92 919.775 2682.98 920.942C2686.19 921.963 2689.76 923.494 2693.7 925.536C2697.64 927.577 2700.63 930.275 2702.67 933.63C2704.86 936.838 2705.95 940.557 2705.95 944.786C2705.95 952.952 2701.79 959.15 2693.48 963.38C2685.31 967.609 2674.09 969.723 2659.79 969.723C2641.13 969.723 2625.96 966.952 2614.29 961.411C2602.63 955.869 2594.75 946.317 2590.67 932.755H2567.92C2569.52 949.671 2577.47 963.452 2591.76 974.098ZM2429.79 820.319V986.569H2451.67V907.163L2543.11 986.569H2570.89L2480.32 907.163C2492.14 907.163 2502.56 906.653 2511.61 905.632C2520.65 904.465 2529.32 902.423 2537.64 899.507C2546.1 896.59 2552.58 892.215 2557.11 886.382C2561.63 880.548 2563.89 873.33 2563.89 864.726C2563.89 849.851 2558.2 838.767 2546.82 831.476C2535.45 824.038 2519.19 820.319 2498.04 820.319H2429.79ZM2503.51 888.569H2451.67V840.007H2498.92C2527.79 840.007 2542.23 848.173 2542.23 864.507C2542.23 872.236 2538.44 878.215 2530.86 882.444C2523.27 886.528 2514.16 888.569 2503.51 888.569ZM2286.54 965.569H2400.29V986.569H2264.66V820.319H2395.91V841.319H2286.54V888.569H2384.98V909.788H2286.54V965.569ZM2180.3 841.319H2241.33L2241.11 820.319H2096.74V841.319H2158.21V986.569H2180.3V841.319ZM1931.82 986.569L2010.79 820.319H2035.29L2114.26 986.569H2090.19L2066.79 938.444H1979.51L1955.88 986.569H1931.82ZM1987.82 917.225H2058.26L2023.04 846.351L1987.82 917.225ZM1683.1 820.319L1738.88 986.569H1762.73L1819.6 843.069L1876.26 986.569H1900.1L1955.88 820.319H1930.95L1888.29 960.538L1834.04 820.319H1804.95L1750.7 960.538L1708.04 820.319H1683.1ZM1591.84 986.788L1515.27 986.569L1515.49 820.319H1585.49C1613.06 820.319 1634.86 827.392 1650.9 841.538C1667.09 855.538 1675.18 876.465 1675.18 904.319C1675.18 930.278 1668.25 950.548 1654.4 965.132C1640.54 979.715 1619.69 986.934 1591.84 986.788ZM1537.37 965.788H1586.59C1606.71 965.788 1622.68 960.611 1634.49 950.257C1646.31 939.757 1652.21 924.08 1652.21 903.225C1652.21 883.684 1646.67 868.444 1635.59 857.507C1624.65 846.569 1608.32 841.101 1586.59 841.101H1537.37V965.788ZM1392.78 820.319L1313.81 986.569H1337.87L1361.5 938.444H1448.78L1472.18 986.569H1496.25L1417.28 820.319H1392.78ZM1440.25 917.225H1369.81L1405.03 846.351L1440.25 917.225ZM1176.55 965.569H1290.3V986.569H1154.68V820.319H1285.93V841.319H1176.55V888.569H1274.99V909.788H1176.55V965.569ZM1112.18 820.319H1090.08V888.569H988.144V820.319H966.051V986.569H988.144V909.788H1090.08V986.569H1112.18V820.319ZM1217.1 377.48H1200.53C1197.42 377.23 1194.29 377.652 1191.36 378.719C1188.37 379.807 1185.66 381.535 1183.41 383.783C1181.16 386.03 1179.43 388.742 1178.35 391.729C1177.28 394.666 1176.86 397.797 1177.11 400.907V676.695H1216.96L1220.62 579.649H1456.26L1456.27 580.087L1456.3 582.17C1456.57 598.461 1456.09 614.068 1449.27 624.727C1444.08 632.833 1435.01 637.646 1419.95 637.73H1350.29V678.599H1418.66C1447.33 678.599 1468.36 671.562 1481.98 657.962C1495.71 644.689 1502.71 626.421 1502.71 603.031L1502.73 385.994L1472.36 395.132H1217.1V377.48ZM1220.76 501.755H1456.18V545.408H1220.76V501.755ZM1220.76 427.523H1456.2V469.345H1220.76V427.523ZM2481.67 144.752H2459.32C2456.34 144.602 2453.37 145.05 2450.57 146.07C2447.74 147.102 2445.14 148.698 2442.78 150.929C2440.72 153.123 2439.13 155.708 2438.1 158.529C2437.08 161.322 2436.63 164.288 2436.77 167.255V556.65C2436.77 574.542 2432.74 596.016 2424.61 612.334C2419.84 622.225 2411.48 627.832 2401.41 631.081C2386.53 635.881 2368 635.661 2350.68 635.455L2349.91 635.445C2344.23 635.378 2338.69 635.313 2333.44 635.412V677.078L2337.06 677.116C2339.05 677.138 2341.03 677.164 2343.01 677.189L2344.36 677.206L2347.07 677.238L2348.43 677.253L2351.13 677.278C2393.42 677.633 2433.54 675.613 2457.13 643.002C2472.92 621.864 2481.51 596.242 2481.67 569.89L2481.67 337.731C2486.34 348.353 2491.29 359.854 2496.53 372.037C2528.1 445.441 2569.37 541.249 2618.94 605.506C2649.01 644.518 2675.04 662.664 2726 661.5L2712.57 599.861C2678.71 597.195 2667.4 583.155 2647.99 559.042L2647.37 558.277C2610.37 513.966 2587.93 460.7 2568.09 412.828C2557.8 388.1 2547.98 364.608 2536.98 344.119C2542.97 340.921 2549.15 337.741 2555.42 334.521C2607.98 308.96 2657.86 276.576 2690.23 222.08C2690.67 221.335 2691.11 220.589 2691.54 219.842C2691 219.194 2690.45 218.535 2689.89 217.863C2675.97 201.184 2668.95 192.415 2668.95 192.415L2668.92 192.378C2668.75 192.154 2667.76 190.924 2666.01 188.699C2664.25 191.065 2663.17 192.5 2663.17 192.5C2663.17 192.5 2656.18 201.77 2648.32 211.715L2647.4 212.867C2647.01 213.36 2646.62 213.854 2646.22 214.348L2645.04 215.828C2639.31 222.968 2633.57 229.847 2630.11 233.197C2597.11 264.934 2561.06 283.256 2528.09 300.013L2527.86 300.131C2526.76 300.691 2525.67 301.246 2524.59 301.798C2521.69 303.275 2518.82 304.74 2515.98 306.205C2512.5 299.358 2509.36 293.428 2506.43 287.917L2506.39 287.838C2497.04 270.211 2489.99 256.908 2481.67 231.08V144.752ZM2128.84 201.808V153.018C2110.4 159.095 2091.12 162.186 2071.73 162.183H1606.2V212.553C1624.55 205.447 1644.05 201.81 1663.7 201.808L1748.97 202.438L1741.85 336.199C1741.46 340.065 1727.91 470.564 1701.97 529.856C1674.63 580.094 1642.74 612.346 1589.79 646.085L1654.66 668.414C1677.74 650.32 1693.17 630.021 1715.58 600.42C1765 537.216 1779.06 452.189 1787.59 359.019L1789.74 347.647L2036.21 347.255V551.047C2036.24 569.561 2031.9 587.813 2023.55 604.325C2019.55 612.316 2012.99 618.256 2003.93 622.237C1994.4 626.427 1982.19 628.465 1967.32 628.465H1903.81L1908.47 676.385C1917.64 676.135 1927.24 676.273 1937 676.413L1937.06 676.414C1938.12 676.429 1939.19 676.445 1940.26 676.46C1941.19 676.473 1942.13 676.485 1943.07 676.497L1946.28 676.535C1989.34 676.992 2033.19 674.684 2057.19 640.86C2073.88 618.556 2082.86 591.428 2082.75 563.576V293.735C2064.32 299.812 2045.05 302.901 2025.66 302.901H1793.27L1797.54 201.808H2128.84ZM1092.58 427.608C1083 424.946 1078.4 425.329 1070.73 430.644C1068.76 432.112 1067.13 434.001 1065.97 436.176C1064.87 438.245 1064.22 440.525 1064.06 442.864C1057.66 471.255 1051.49 490.985 1044.52 509.811L1043.6 512.279C1042.83 514.321 1042.05 516.364 1041.26 518.41L1040.3 520.875C1037.91 527.023 1035.4 533.242 1032.68 539.979L1032.11 541.4C1015.98 590.099 978.76 633.386 943 656.93L999.075 670.987C1057.4 633.666 1094.54 507.048 1109.71 437.21L1092.58 427.608ZM2387.95 232.149C2381.99 230.688 2376.3 231.317 2371.71 234.024C2368.07 236.168 2365.05 239.633 2363.21 244.636H2184.4V290.84C2202.02 283.967 2220.76 280.45 2239.66 280.452H2357.64C2344.74 340.282 2324.84 386.077 2298.19 435.64C2295.19 441.284 2292.39 446.62 2289.71 451.743C2264.59 499.666 2249.34 528.74 2170.78 605.822L2227.57 614.512C2274.14 572.925 2301.3 528.544 2326.33 481.337L2328.11 477.96C2328.41 477.397 2328.7 476.833 2329 476.268L2330.79 472.851L2332.58 469.421C2335.54 463.717 2338.5 457.975 2341.47 452.192C2376.5 386.6 2399.24 315.564 2410.11 235.864L2387.95 232.149ZM1051.22 300.985C1034.44 286.102 1016.57 272.506 997.741 260.314L982.56 277.794C978.328 282.925 976.064 289.304 976.504 295.182C976.919 300.719 979.627 305.902 985.407 309.432C999.724 318.255 1013.33 328.206 1026.19 339.27C1039.81 350.154 1055.32 364.135 1072.73 381.212L1107.13 352.291C1086.8 332.313 1068.16 315.213 1051.22 300.985ZM1359.57 164.692V113.804H1336.28C1329.1 113.745 1323.31 116.083 1319.29 120.1C1315.27 124.119 1312.93 129.902 1312.99 137.077V164.637H1143.76V209.642C1162.12 202.534 1181.62 198.897 1201.28 198.896H1312.97V241.102H1150.96V286.108C1169.31 279 1188.8 275.362 1208.45 275.362H1313.04V316.268H1127.52V361.273C1145.87 354.166 1165.37 350.527 1185.02 350.527H1546.51V307.084C1528.07 313.16 1508.79 316.251 1489.4 316.249H1359.57V275.362H1521.66V231.918C1503.23 237.995 1483.95 241.087 1464.57 241.084H1359.57V198.97H1529.51V155.526C1511.08 161.603 1491.79 164.694 1472.4 164.692H1359.57ZM1070.13 152.633C1053.38 137.757 1035.52 124.173 1016.71 112L1001.51 129.475C997.281 134.596 995.015 140.977 995.456 146.859C995.869 152.374 998.555 157.539 1004.28 161.068C1033.21 179.732 1062.34 203.672 1091.67 232.874L1126.08 203.938C1105.76 183.961 1087.11 166.861 1070.13 152.633Z" fill="white"/>
</svg>
